<?xml version="1.0" encoding="utf-8"?>
<!-- Generator: Adobe Illustrator 23.1.0, SVG Export Plug-In . SVG Version: 6.00 Build 0)  -->
<svg version="1.1" id="Layer_1" xmlns="http://www.w3.org/2000/svg" xmlns:xlink="http://www.w3.org/1999/xlink" x="0px" y="0px"
	 viewBox="0 0 24 24" style="enable-background:new 0 0 24 24;" xml:space="preserve">
<style type="text/css">
	.st0{fill:#FFFFFF;}
</style>
<title>Adobe Acrobat Reader icon</title>
<path class="st0" d="M23.6,15.3c-0.7-0.7-2.2-1.2-4.2-1.2c-1.1,0-2.4,0.1-3.8,0.4c-0.8-0.8-1.6-1.7-2.3-2.7c-0.5-0.7-1-1.5-1.4-2.2
	c0.8-2.5,1.2-4.5,1.2-6c0-1.6-0.6-3.3-2.3-3.3c-0.5,0-1.1,0.3-1.3,0.8C8.7,2.5,9,5.5,10.4,8.5c-0.5,1.5-1.1,3-1.7,4.5
	c-0.6,1.3-1.2,2.7-1.9,4c-3.9,1.6-6.4,3.4-6.7,4.8c-0.1,0.5,0.1,1,0.5,1.4c0.1,0.1,0.6,0.5,1.5,0.5c2.6,0,5.3-4.2,6.7-6.7
	c1.1-0.4,2.1-0.7,3.2-1c1.1-0.3,2.3-0.6,3.4-0.7c2.7,2.4,5.1,2.8,6.4,2.8c1.5,0,2-0.6,2.2-1.1C24.2,16.4,23.9,15.7,23.6,15.3
	L23.6,15.3z M22.2,16.3c-0.1,0.5-0.6,0.9-1.4,0.9c-0.2,0-0.4,0-0.6-0.1c-1.3-0.3-2.6-1-3.9-2.1c1-0.2,2-0.2,3-0.2
	c0.7,0,1.4,0,1.8,0.1C21.6,15.1,22.4,15.4,22.2,16.3L22.2,16.3z M14.7,14.7c-1,0.2-2,0.4-2.9,0.7c-0.8,0.2-1.7,0.5-2.5,0.7
	c0.4-0.8,0.8-1.7,1.2-2.6c0.4-1,0.8-2,1.1-3c0.4,0.6,0.7,1.2,1.1,1.7C13.3,13.1,14,13.9,14.7,14.7z M10,1.5C10.2,1.2,10.4,1,10.7,1
	c0.7,0,0.9,0.9,0.9,1.5c0,1.1-0.4,2.9-1,4.9C9.6,4.7,9.5,2.3,10,1.5z M6.1,18c-1.8,3-3.5,4.8-4.6,4.8c-0.2,0-0.4-0.1-0.5-0.2
	c-0.2-0.2-0.3-0.5-0.2-0.7C1,20.8,3,19.3,6.1,18z"/>
</svg>
